<svg width="67" height="67" viewBox="0 0 67 67" fill="none" xmlns="http://www.w3.org/2000/svg">
<path d="M5.58341 30.7084L11.3063 30.9875C11.6446 27.9319 12.6131 24.9797 14.1508 22.3176C15.6885 19.6555 17.7618 17.3414 20.2397 15.5217L17.113 10.72C16.3592 9.38002 16.7501 7.67711 18.1459 6.89544C19.5417 6.14169 21.1888 6.58836 21.9705 7.92836L24.5667 13.0092C27.3888 11.796 30.4283 11.1703 33.5001 11.1703C36.5718 11.1703 39.6114 11.796 42.4334 13.0092L45.0297 7.92836C45.8113 6.58836 47.4584 6.14169 48.8542 6.89544C50.2501 7.67711 50.6409 9.38002 49.8872 10.72L46.7605 15.5217C49.2384 17.3414 51.3117 19.6555 52.8493 22.3176C54.387 24.9797 55.3556 27.9319 55.6938 30.9875L61.4167 30.7084C62.1571 30.7084 62.8672 31.0025 63.3907 31.526C63.9143 32.0496 64.2084 32.7596 64.2084 33.5C64.2084 34.2404 63.9143 34.9505 63.3907 35.474C62.8672 35.9976 62.1571 36.2917 61.4167 36.2917L55.6938 36.0125C55.3556 39.0681 54.387 42.0203 52.8493 44.6824C51.3117 47.3445 49.2384 49.6586 46.7605 51.4784L49.8872 56.28C50.6409 57.62 50.2501 59.3229 48.8542 60.1046C47.4584 60.8584 45.8113 60.4117 45.0297 59.0717L42.4334 53.9909C39.6114 55.2041 36.5718 55.8298 33.5001 55.8298C30.4283 55.8298 27.3888 55.2041 24.5667 53.9909L21.9705 59.0717C21.1888 60.4117 19.5417 60.8584 18.1459 60.1046C16.7501 59.3229 16.3592 57.62 17.113 56.28L20.2397 51.4784C17.7618 49.6586 15.6885 47.3445 14.1508 44.6824C12.6131 42.0203 11.6446 39.0681 11.3063 36.0125L5.58341 36.2917C4.84302 36.2917 4.13295 35.9976 3.60941 35.474C3.08587 34.9505 2.79175 34.2404 2.79175 33.5C2.79175 32.7596 3.08587 32.0496 3.60941 31.526C4.13295 31.0025 4.84302 30.7084 5.58341 30.7084ZM25.3205 31.6854C25.6834 29.9825 26.6047 28.475 27.9167 27.3304L23.2826 20.2396C19.7801 22.9278 17.4821 26.8914 16.8897 31.2667L25.3205 31.6854ZM33.5001 25.125C34.3934 25.125 35.2309 25.2646 36.0126 25.5159L39.8651 18.0063C37.9109 17.1967 35.7613 16.75 33.5001 16.75C31.2388 16.75 29.0892 17.1967 27.1351 18.0063L30.9876 25.5159C31.7692 25.2646 32.6067 25.125 33.5001 25.125ZM41.6797 31.6854L50.1105 31.2667C49.518 26.8914 47.2201 22.9278 43.7176 20.2396L39.0834 27.3304C40.3955 28.475 41.3167 29.9825 41.6797 31.6854ZM41.6797 35.3146C41.3167 37.0175 40.3955 38.525 39.0834 39.6696L43.7176 46.7604C47.2201 44.0723 49.518 40.1086 50.1105 35.7334L41.6797 35.3146ZM33.5001 41.875C32.6067 41.875 31.7692 41.7354 30.9597 41.4842L27.1351 48.9938C29.0892 49.8034 31.2388 50.25 33.5001 50.25C35.7613 50.25 37.9109 49.8034 39.8651 48.9938L36.0405 41.4842C35.2309 41.7354 34.3934 41.875 33.5001 41.875ZM25.3205 35.3146L16.8897 35.7334C17.5038 40.2 19.8488 44.1363 23.2826 46.7604L27.9167 39.6696C26.6047 38.525 25.6834 37.0175 25.3205 35.3146Z" fill="#AD6800"/>
</svg>
